<svg width="312" height="51" viewBox="0 0 312 51" fill="none" xmlns="http://www.w3.org/2000/svg">
<rect x="0.971191" y="33.9754" width="9.19028" height="16.0529" rx="4.59514" fill="#EFEFEF" style="fill:#EFEFEF;fill:color(display-p3 0.9373 0.9373 0.9373);fill-opacity:1;"/>
<rect x="11.3506" y="22.0844" width="9.19028" height="27.9439" rx="4.59514" fill="#EFEFEF" style="fill:#EFEFEF;fill:color(display-p3 0.9373 0.9373 0.9373);fill-opacity:1;"/>
<rect x="21.73" y="36.9482" width="9.19028" height="13.0801" rx="4.59514" fill="#EFEFEF" style="fill:#EFEFEF;fill:color(display-p3 0.9373 0.9373 0.9373);fill-opacity:1;"/>
<rect x="32.1094" y="38.7318" width="9.19028" height="11.2965" rx="4.59514" fill="#EFEFEF" style="fill:#EFEFEF;fill:color(display-p3 0.9373 0.9373 0.9373);fill-opacity:1;"/>
<rect x="42.4888" y="29.8136" width="9.19028" height="20.2147" rx="4.59514" fill="#EFEFEF" style="fill:#EFEFEF;fill:color(display-p3 0.9373 0.9373 0.9373);fill-opacity:1;"/>
<rect x="52.8682" y="25.6517" width="9.19028" height="24.3766" rx="4.59514" fill="#EFEFEF" style="fill:#EFEFEF;fill:color(display-p3 0.9373 0.9373 0.9373);fill-opacity:1;"/>
<rect x="63.2476" y="20.3008" width="9.19028" height="29.7275" rx="4.59514" fill="#EFEFEF" style="fill:#EFEFEF;fill:color(display-p3 0.9373 0.9373 0.9373);fill-opacity:1;"/>
<rect x="73.627" y="33.3809" width="9.19028" height="16.6474" rx="4.59514" fill="#EFEFEF" style="fill:#EFEFEF;fill:color(display-p3 0.9373 0.9373 0.9373);fill-opacity:1;"/>
<rect x="84.0063" y="25.6517" width="9.19028" height="24.3766" rx="4.59514" fill="#EFEFEF" style="fill:#EFEFEF;fill:color(display-p3 0.9373 0.9373 0.9373);fill-opacity:1;"/>
<rect x="94.3857" y="11.3825" width="9.19028" height="38.6458" rx="4.59514" fill="#EFEFEF" style="fill:#EFEFEF;fill:color(display-p3 0.9373 0.9373 0.9373);fill-opacity:1;"/>
<rect x="104.765" y="9.0043" width="9.19028" height="41.024" rx="4.59514" fill="#EFEFEF" style="fill:#EFEFEF;fill:color(display-p3 0.9373 0.9373 0.9373);fill-opacity:1;"/>
<rect x="115.145" y="28.6245" width="9.19028" height="21.4038" rx="4.59514" fill="#EFEFEF" style="fill:#EFEFEF;fill:color(display-p3 0.9373 0.9373 0.9373);fill-opacity:1;"/>
<rect x="125.524" y="28.6245" width="9.19028" height="21.4038" rx="4.59514" fill="#EFEFEF" style="fill:#EFEFEF;fill:color(display-p3 0.9373 0.9373 0.9373);fill-opacity:1;"/>
<rect x="135.903" y="9.0043" width="9.19028" height="41.024" rx="4.59514" fill="#EFEFEF" style="fill:#EFEFEF;fill:color(display-p3 0.9373 0.9373 0.9373);fill-opacity:1;"/>
<rect x="146.283" y="9.59885" width="9.19028" height="40.4294" rx="4.59514" fill="#EFEFEF" style="fill:#EFEFEF;fill:color(display-p3 0.9373 0.9373 0.9373);fill-opacity:1;"/>
<rect x="156.662" y="11.3825" width="9.19029" height="38.6458" rx="4.59514" fill="#EFEFEF" style="fill:#EFEFEF;fill:color(display-p3 0.9373 0.9373 0.9373);fill-opacity:1;"/>
<rect x="167.042" y="33.9754" width="9.19028" height="16.0529" rx="4.59514" fill="#EFEFEF" style="fill:#EFEFEF;fill:color(display-p3 0.9373 0.9373 0.9373);fill-opacity:1;"/>
<rect x="177.421" y="38.7318" width="9.19028" height="11.2965" rx="4.59514" fill="#EFEFEF" style="fill:#EFEFEF;fill:color(display-p3 0.9373 0.9373 0.9373);fill-opacity:1;"/>
<rect x="187.8" y="22.0844" width="9.19028" height="27.9439" rx="4.59514" fill="#EFEFEF" style="fill:#EFEFEF;fill:color(display-p3 0.9373 0.9373 0.9373);fill-opacity:1;"/>
<rect x="198.18" y="33.9754" width="9.19028" height="16.0529" rx="4.59514" fill="#EFEFEF" style="fill:#EFEFEF;fill:color(display-p3 0.9373 0.9373 0.9373);fill-opacity:1;"/>
<rect x="208.559" y="20.3008" width="9.19028" height="29.7275" rx="4.59514" fill="#EFEFEF" style="fill:#EFEFEF;fill:color(display-p3 0.9373 0.9373 0.9373);fill-opacity:1;"/>
<rect x="218.938" y="17.328" width="9.19028" height="32.7003" rx="4.59514" fill="#5654D4" style="fill:#5654D4;fill:color(display-p3 0.3373 0.3294 0.8314);fill-opacity:1;"/>
<rect x="229.317" y="6.03156" width="9.19028" height="43.9967" rx="4.59514" fill="#EFEFEF" style="fill:#EFEFEF;fill:color(display-p3 0.9373 0.9373 0.9373);fill-opacity:1;"/>
<rect x="239.697" y="11.3825" width="9.19028" height="38.6458" rx="4.59514" fill="#EFEFEF" style="fill:#EFEFEF;fill:color(display-p3 0.9373 0.9373 0.9373);fill-opacity:1;"/>
<rect x="250.076" y="17.328" width="9.19028" height="32.7003" rx="4.59514" fill="#EFEFEF" style="fill:#EFEFEF;fill:color(display-p3 0.9373 0.9373 0.9373);fill-opacity:1;"/>
<rect x="260.456" y="26.8408" width="9.19028" height="23.1875" rx="4.59514" fill="#EFEFEF" style="fill:#EFEFEF;fill:color(display-p3 0.9373 0.9373 0.9373);fill-opacity:1;"/>
<rect x="270.835" y="17.328" width="9.19028" height="32.7003" rx="4.59514" fill="#EFEFEF" style="fill:#EFEFEF;fill:color(display-p3 0.9373 0.9373 0.9373);fill-opacity:1;"/>
<rect x="281.214" y="28.6245" width="9.19028" height="21.4038" rx="4.59514" fill="#EFEFEF" style="fill:#EFEFEF;fill:color(display-p3 0.9373 0.9373 0.9373);fill-opacity:1;"/>
<rect x="291.594" y="14.9498" width="9.19028" height="35.0785" rx="4.59514" fill="#EFEFEF" style="fill:#EFEFEF;fill:color(display-p3 0.9373 0.9373 0.9373);fill-opacity:1;"/>
<rect x="301.973" y="25.6517" width="9.19028" height="24.3766" rx="4.59514" fill="#EFEFEF" style="fill:#EFEFEF;fill:color(display-p3 0.9373 0.9373 0.9373);fill-opacity:1;"/>
<path d="M211.758 2.46423C211.758 1.15079 212.823 0.0860291 214.137 0.0860291H233.757C235.07 0.0860291 236.135 1.15079 236.135 2.46423V10.7879C236.135 12.1014 235.07 13.1661 233.757 13.1661H214.137C212.823 13.1661 211.758 12.1014 211.758 10.7879V2.46423Z" fill="#5654D4" style="fill:#5654D4;fill:color(display-p3 0.3373 0.3294 0.8314);fill-opacity:1;"/>
<path d="M218.02 3.66949C219.272 3.66949 220.361 4.55957 220.361 6.67301V6.68114C220.361 8.6564 219.471 9.82692 217.996 9.82692C216.919 9.82692 216.114 9.18882 215.927 8.29061L215.919 8.2459H216.951L216.964 8.28654C217.118 8.69704 217.48 8.96528 217.996 8.96528C218.927 8.96528 219.321 8.05488 219.366 6.93313C219.366 6.88842 219.37 6.84372 219.37 6.79901H219.288C219.073 7.26234 218.561 7.67283 217.756 7.67283C216.63 7.67283 215.842 6.85184 215.842 5.73822V5.73009C215.842 4.53925 216.748 3.66949 218.02 3.66949ZM218.016 6.8681C218.679 6.8681 219.187 6.38851 219.187 5.72603V5.7179C219.187 5.04729 218.679 4.52299 218.028 4.52299C217.382 4.52299 216.866 5.03916 216.866 5.69352V5.70164C216.866 6.38038 217.35 6.8681 218.016 6.8681ZM224.198 9.6806V8.55479H221.329V7.69722C222.089 6.37632 222.922 5.02697 223.718 3.8158H225.202V7.68909H225.99V8.55479H225.202V9.6806H224.198ZM222.304 7.71348H224.214V4.65305H224.153C223.552 5.57159 222.873 6.65676 222.304 7.65251V7.71348ZM229.274 9.79847C227.925 9.79847 226.986 9.09941 226.986 8.09552V8.08739C226.986 7.3355 227.535 6.7543 228.315 6.59579V6.57141C227.645 6.39258 227.198 5.9008 227.198 5.27083V5.2627C227.198 4.36042 228.059 3.69794 229.274 3.69794C230.49 3.69794 231.351 4.36042 231.351 5.2627V5.27083C231.351 5.9008 230.904 6.39258 230.234 6.57141V6.59579C231.018 6.7543 231.563 7.3355 231.563 8.08739V8.09552C231.563 9.09941 230.624 9.79847 229.274 9.79847ZM229.274 6.23813C229.888 6.23813 230.315 5.88047 230.315 5.36837V5.36024C230.315 4.84814 229.888 4.49048 229.274 4.49048C228.661 4.49048 228.234 4.84814 228.234 5.36024V5.36837C228.234 5.88047 228.661 6.23813 229.274 6.23813ZM229.274 8.9978C229.978 8.9978 230.477 8.59137 230.477 8.02643V8.0183C230.477 7.4493 229.982 7.0388 229.274 7.0388C228.563 7.0388 228.071 7.4493 228.071 8.0183V8.02643C228.071 8.59137 228.571 8.9978 229.274 8.9978Z" fill="white" style="fill:white;fill-opacity:1;"/>
<path d="M224.367 15.1239C224.135 15.3561 223.758 15.3561 223.526 15.1239L221.568 13.1661L226.325 13.1661L224.367 15.1239Z" fill="#5654D4" style="fill:#5654D4;fill:color(display-p3 0.3373 0.3294 0.8314);fill-opacity:1;"/>
</svg>
