<svg width="312" height="46" viewBox="0 0 312 46" fill="none" xmlns="http://www.w3.org/2000/svg">
<rect x="0.836426" y="29.2849" width="9.19028" height="16.6474" rx="4.59514" fill="#EFEFEF" style="fill:#EFEFEF;fill:color(display-p3 0.9373 0.9373 0.9373);fill-opacity:1;"/>
<rect x="11.2158" y="17.3939" width="9.19028" height="28.5384" rx="4.59514" fill="#EFEFEF" style="fill:#EFEFEF;fill:color(display-p3 0.9373 0.9373 0.9373);fill-opacity:1;"/>
<rect x="21.5952" y="32.8522" width="9.19028" height="13.0801" rx="4.59514" fill="#EFEFEF" style="fill:#EFEFEF;fill:color(display-p3 0.9373 0.9373 0.9373);fill-opacity:1;"/>
<rect x="31.9746" y="34.6359" width="9.19028" height="11.2965" rx="4.59514" fill="#EFEFEF" style="fill:#EFEFEF;fill:color(display-p3 0.9373 0.9373 0.9373);fill-opacity:1;"/>
<rect x="42.354" y="32.8522" width="9.19028" height="13.0801" rx="4.59514" fill="#EFEFEF" style="fill:#EFEFEF;fill:color(display-p3 0.9373 0.9373 0.9373);fill-opacity:1;"/>
<rect x="52.7334" y="38.7977" width="9.19028" height="7.1346" rx="3.5673" fill="#EFEFEF" style="fill:#EFEFEF;fill:color(display-p3 0.9373 0.9373 0.9373);fill-opacity:1;"/>
<rect x="63.1128" y="29.2849" width="9.19028" height="16.6474" rx="4.59514" fill="#EFEFEF" style="fill:#EFEFEF;fill:color(display-p3 0.9373 0.9373 0.9373);fill-opacity:1;"/>
<rect x="73.4922" y="28.6904" width="9.19028" height="17.242" rx="4.59514" fill="#EFEFEF" style="fill:#EFEFEF;fill:color(display-p3 0.9373 0.9373 0.9373);fill-opacity:1;"/>
<rect x="83.8716" y="20.9612" width="9.19028" height="24.9711" rx="4.59514" fill="#EFEFEF" style="fill:#EFEFEF;fill:color(display-p3 0.9373 0.9373 0.9373);fill-opacity:1;"/>
<rect x="94.251" y="29.2849" width="9.19028" height="16.6474" rx="4.59514" fill="#EFEFEF" style="fill:#EFEFEF;fill:color(display-p3 0.9373 0.9373 0.9373);fill-opacity:1;"/>
<rect x="104.63" y="38.7977" width="9.19028" height="7.1346" rx="3.5673" fill="#EFEFEF" style="fill:#EFEFEF;fill:color(display-p3 0.9373 0.9373 0.9373);fill-opacity:1;"/>
<rect x="115.01" y="29.2849" width="9.19028" height="16.6474" rx="4.59514" fill="#EFEFEF" style="fill:#EFEFEF;fill:color(display-p3 0.9373 0.9373 0.9373);fill-opacity:1;"/>
<rect x="125.389" y="23.934" width="9.19028" height="21.9984" rx="4.59514" fill="#EFEFEF" style="fill:#EFEFEF;fill:color(display-p3 0.9373 0.9373 0.9373);fill-opacity:1;"/>
<rect x="135.769" y="20.9612" width="9.19028" height="24.9711" rx="4.59514" fill="#EFEFEF" style="fill:#EFEFEF;fill:color(display-p3 0.9373 0.9373 0.9373);fill-opacity:1;"/>
<rect x="146.148" y="23.934" width="9.19028" height="21.9984" rx="4.59514" fill="#EFEFEF" style="fill:#EFEFEF;fill:color(display-p3 0.9373 0.9373 0.9373);fill-opacity:1;"/>
<rect x="156.527" y="6.09747" width="9.19029" height="39.8349" rx="4.59514" fill="#EFEFEF" style="fill:#EFEFEF;fill:color(display-p3 0.9373 0.9373 0.9373);fill-opacity:1;"/>
<rect x="166.907" y="29.2849" width="9.19028" height="16.6474" rx="4.59514" fill="#EFEFEF" style="fill:#EFEFEF;fill:color(display-p3 0.9373 0.9373 0.9373);fill-opacity:1;"/>
<rect x="177.286" y="34.6359" width="9.19028" height="11.2965" rx="4.59514" fill="#EFEFEF" style="fill:#EFEFEF;fill:color(display-p3 0.9373 0.9373 0.9373);fill-opacity:1;"/>
<rect x="187.666" y="0.746521" width="9.19028" height="45.1858" rx="4.59514" fill="#EFEFEF" style="fill:#EFEFEF;fill:color(display-p3 0.9373 0.9373 0.9373);fill-opacity:1;"/>
<rect x="198.045" y="29.2849" width="9.19028" height="16.6474" rx="4.59514" fill="#EFEFEF" style="fill:#EFEFEF;fill:color(display-p3 0.9373 0.9373 0.9373);fill-opacity:1;"/>
<rect x="208.424" y="23.934" width="9.19028" height="21.9984" rx="4.59514" fill="#EFEFEF" style="fill:#EFEFEF;fill:color(display-p3 0.9373 0.9373 0.9373);fill-opacity:1;"/>
<rect x="218.803" y="18.583" width="9.19028" height="27.3493" rx="4.59514" fill="#1DBF73" style="fill:#1DBF73;fill:color(display-p3 0.1137 0.7490 0.4510);fill-opacity:1;"/>
<rect x="229.183" y="17.3939" width="9.19028" height="28.5384" rx="4.59514" fill="#EFEFEF" style="fill:#EFEFEF;fill:color(display-p3 0.9373 0.9373 0.9373);fill-opacity:1;"/>
<rect x="239.562" y="6.09747" width="9.19028" height="39.8349" rx="4.59514" fill="#EFEFEF" style="fill:#EFEFEF;fill:color(display-p3 0.9373 0.9373 0.9373);fill-opacity:1;"/>
<rect x="249.941" y="12.6375" width="9.19028" height="33.2948" rx="4.59514" fill="#EFEFEF" style="fill:#EFEFEF;fill:color(display-p3 0.9373 0.9373 0.9373);fill-opacity:1;"/>
<rect x="260.321" y="6.09747" width="9.19028" height="39.8349" rx="4.59514" fill="#EFEFEF" style="fill:#EFEFEF;fill:color(display-p3 0.9373 0.9373 0.9373);fill-opacity:1;"/>
<rect x="270.7" y="6.09747" width="9.19028" height="39.8349" rx="4.59514" fill="#EFEFEF" style="fill:#EFEFEF;fill:color(display-p3 0.9373 0.9373 0.9373);fill-opacity:1;"/>
<rect x="281.08" y="23.934" width="9.19028" height="21.9984" rx="4.59514" fill="#EFEFEF" style="fill:#EFEFEF;fill:color(display-p3 0.9373 0.9373 0.9373);fill-opacity:1;"/>
<rect x="291.459" y="9.66476" width="9.19028" height="36.2676" rx="4.59514" fill="#EFEFEF" style="fill:#EFEFEF;fill:color(display-p3 0.9373 0.9373 0.9373);fill-opacity:1;"/>
<rect x="301.838" y="20.9612" width="9.19028" height="24.9711" rx="4.59514" fill="#EFEFEF" style="fill:#EFEFEF;fill:color(display-p3 0.9373 0.9373 0.9373);fill-opacity:1;"/>
</svg>
