<svg width="312" height="46" viewBox="0 0 312 46" fill="none" xmlns="http://www.w3.org/2000/svg">
<rect width="9.19028" height="16.6474" rx="4.59514" transform="matrix(-1 0 0 1 311.164 29.2849)" fill="#EFEFEF" style="fill:#EFEFEF;fill:color(display-p3 0.9373 0.9373 0.9373);fill-opacity:1;"/>
<rect width="9.19028" height="28.5384" rx="4.59514" transform="matrix(-1 0 0 1 300.784 17.3939)" fill="#EFEFEF" style="fill:#EFEFEF;fill:color(display-p3 0.9373 0.9373 0.9373);fill-opacity:1;"/>
<rect width="9.19028" height="13.0801" rx="4.59514" transform="matrix(-1 0 0 1 290.405 32.8522)" fill="#EFEFEF" style="fill:#EFEFEF;fill:color(display-p3 0.9373 0.9373 0.9373);fill-opacity:1;"/>
<rect width="9.19028" height="11.2965" rx="4.59514" transform="matrix(-1 0 0 1 280.025 34.6359)" fill="#EFEFEF" style="fill:#EFEFEF;fill:color(display-p3 0.9373 0.9373 0.9373);fill-opacity:1;"/>
<rect width="9.19028" height="20.8093" rx="4.59514" transform="matrix(-1 0 0 1 269.646 25.1231)" fill="#EFEFEF" style="fill:#EFEFEF;fill:color(display-p3 0.9373 0.9373 0.9373);fill-opacity:1;"/>
<rect width="9.19028" height="24.9711" rx="4.59514" transform="matrix(-1 0 0 1 259.267 20.9612)" fill="#EFEFEF" style="fill:#EFEFEF;fill:color(display-p3 0.9373 0.9373 0.9373);fill-opacity:1;"/>
<rect width="9.19028" height="30.3221" rx="4.59514" transform="matrix(-1 0 0 1 248.887 15.6103)" fill="#EFEFEF" style="fill:#EFEFEF;fill:color(display-p3 0.9373 0.9373 0.9373);fill-opacity:1;"/>
<rect width="9.19028" height="17.242" rx="4.59514" transform="matrix(-1 0 0 1 238.508 28.6904)" fill="#EFEFEF" style="fill:#EFEFEF;fill:color(display-p3 0.9373 0.9373 0.9373);fill-opacity:1;"/>
<rect width="9.19028" height="24.9711" rx="4.59514" transform="matrix(-1 0 0 1 228.128 20.9612)" fill="#EFEFEF" style="fill:#EFEFEF;fill:color(display-p3 0.9373 0.9373 0.9373);fill-opacity:1;"/>
<rect width="9.19028" height="39.8349" rx="4.59514" transform="matrix(-1 0 0 1 217.749 6.09747)" fill="#EFEFEF" style="fill:#EFEFEF;fill:color(display-p3 0.9373 0.9373 0.9373);fill-opacity:1;"/>
<rect width="9.19028" height="42.2131" rx="4.59514" transform="matrix(-1 0 0 1 207.37 3.71927)" fill="#EFEFEF" style="fill:#EFEFEF;fill:color(display-p3 0.9373 0.9373 0.9373);fill-opacity:1;"/>
<rect width="9.19028" height="21.9984" rx="4.59514" transform="matrix(-1 0 0 1 196.99 23.934)" fill="#EFEFEF" style="fill:#EFEFEF;fill:color(display-p3 0.9373 0.9373 0.9373);fill-opacity:1;"/>
<rect width="9.19028" height="21.9984" rx="4.59514" transform="matrix(-1 0 0 1 186.611 23.934)" fill="#EFEFEF" style="fill:#EFEFEF;fill:color(display-p3 0.9373 0.9373 0.9373);fill-opacity:1;"/>
<rect width="9.19028" height="42.2131" rx="4.59514" transform="matrix(-1 0 0 1 176.231 3.71927)" fill="#EFEFEF" style="fill:#EFEFEF;fill:color(display-p3 0.9373 0.9373 0.9373);fill-opacity:1;"/>
<rect width="9.19028" height="41.6185" rx="4.59514" transform="matrix(-1 0 0 1 165.852 4.31381)" fill="#EFEFEF" style="fill:#EFEFEF;fill:color(display-p3 0.9373 0.9373 0.9373);fill-opacity:1;"/>
<rect width="9.19029" height="39.8349" rx="4.59514" transform="matrix(-1 0 0 1 155.473 6.09747)" fill="#FF9F0A" style="fill:#FF9F0A;fill:color(display-p3 1.0000 0.6235 0.0392);fill-opacity:1;"/>
<rect width="9.19028" height="16.6474" rx="4.59514" transform="matrix(-1 0 0 1 145.093 29.2849)" fill="#EFEFEF" style="fill:#EFEFEF;fill:color(display-p3 0.9373 0.9373 0.9373);fill-opacity:1;"/>
<rect width="9.19028" height="11.2965" rx="4.59514" transform="matrix(-1 0 0 1 134.714 34.6359)" fill="#EFEFEF" style="fill:#EFEFEF;fill:color(display-p3 0.9373 0.9373 0.9373);fill-opacity:1;"/>
<rect width="9.19028" height="28.5384" rx="4.59514" transform="matrix(-1 0 0 1 124.334 17.3939)" fill="#EFEFEF" style="fill:#EFEFEF;fill:color(display-p3 0.9373 0.9373 0.9373);fill-opacity:1;"/>
<rect width="9.19028" height="16.6474" rx="4.59514" transform="matrix(-1 0 0 1 113.955 29.2849)" fill="#EFEFEF" style="fill:#EFEFEF;fill:color(display-p3 0.9373 0.9373 0.9373);fill-opacity:1;"/>
<rect width="9.19028" height="30.3221" rx="4.59514" transform="matrix(-1 0 0 1 103.576 15.6103)" fill="#EFEFEF" style="fill:#EFEFEF;fill:color(display-p3 0.9373 0.9373 0.9373);fill-opacity:1;"/>
<rect width="9.19028" height="27.3493" rx="4.59514" transform="matrix(-1 0 0 1 93.1968 18.583)" fill="#EFEFEF" style="fill:#EFEFEF;fill:color(display-p3 0.9373 0.9373 0.9373);fill-opacity:1;"/>
<rect width="9.19028" height="45.1858" rx="4.59514" transform="matrix(-1 0 0 1 82.8174 0.746521)" fill="#EFEFEF" style="fill:#EFEFEF;fill:color(display-p3 0.9373 0.9373 0.9373);fill-opacity:1;"/>
<rect width="9.19028" height="39.8349" rx="4.59514" transform="matrix(-1 0 0 1 72.438 6.09747)" fill="#EFEFEF" style="fill:#EFEFEF;fill:color(display-p3 0.9373 0.9373 0.9373);fill-opacity:1;"/>
<rect width="9.19028" height="33.2948" rx="4.59514" transform="matrix(-1 0 0 1 62.0586 12.6375)" fill="#EFEFEF" style="fill:#EFEFEF;fill:color(display-p3 0.9373 0.9373 0.9373);fill-opacity:1;"/>
<rect width="9.19028" height="23.782" rx="4.59514" transform="matrix(-1 0 0 1 51.6792 22.1503)" fill="#EFEFEF" style="fill:#EFEFEF;fill:color(display-p3 0.9373 0.9373 0.9373);fill-opacity:1;"/>
<rect width="9.19028" height="33.2948" rx="4.59514" transform="matrix(-1 0 0 1 41.2998 12.6375)" fill="#EFEFEF" style="fill:#EFEFEF;fill:color(display-p3 0.9373 0.9373 0.9373);fill-opacity:1;"/>
<rect width="9.19028" height="21.9984" rx="4.59514" transform="matrix(-1 0 0 1 30.9204 23.934)" fill="#EFEFEF" style="fill:#EFEFEF;fill:color(display-p3 0.9373 0.9373 0.9373);fill-opacity:1;"/>
<rect width="9.19028" height="36.8621" rx="4.59514" transform="matrix(-1 0 0 1 20.541 9.07022)" fill="#EFEFEF" style="fill:#EFEFEF;fill:color(display-p3 0.9373 0.9373 0.9373);fill-opacity:1;"/>
<rect width="9.19028" height="24.9711" rx="4.59514" transform="matrix(-1 0 0 1 10.1616 20.9612)" fill="#EFEFEF" style="fill:#EFEFEF;fill:color(display-p3 0.9373 0.9373 0.9373);fill-opacity:1;"/>
</svg>
