<svg width="13" height="13" viewBox="0 0 13 13" fill="none" xmlns="http://www.w3.org/2000/svg">
<path d="M6.7622 11.3006C9.49714 11.3006 11.7168 9.08094 11.7168 6.34601C11.7168 3.61108 9.49714 1.39143 6.7622 1.39143C4.02727 1.39143 1.80762 3.61108 1.80762 6.34601C1.80762 9.08094 4.02727 11.3006 6.7622 11.3006ZM6.7622 2.38234C8.95213 2.38234 10.7259 4.15608 10.7259 6.34601C10.7259 8.53594 8.95213 10.3097 6.7622 10.3097C4.57228 10.3097 2.79853 8.53594 2.79853 6.34601C2.79853 4.15608 4.57228 2.38234 6.7622 2.38234ZM7.25766 6.34601H8.74404L6.7622 4.36418L4.78037 6.34601H6.26675V8.32785H7.25766V6.34601Z" fill="#1DBF73" style="fill:#1DBF73;fill:color(display-p3 0.1137 0.7490 0.4510);fill-opacity:1;"/>
</svg>
