<svg width="28" height="20" viewBox="0 0 28 20" fill="none" xmlns="http://www.w3.org/2000/svg">
<rect x="0.432041" y="0.681461" width="26.7548" height="18.4311" rx="2.08093" fill="white" style="fill:white;fill-opacity:1;"/>
<rect x="0.432041" y="0.681461" width="26.7548" height="18.4311" rx="2.08093" stroke="#EAECF0" style="stroke:#EAECF0;stroke:color(display-p3 0.9176 0.9255 0.9412);stroke-opacity:1;" stroke-width="0.59455"/>
<path fill-rule="evenodd" clip-rule="evenodd" d="M8.65691 12.9555H7.02408L5.79966 8.14691C5.74154 7.92571 5.61815 7.73016 5.43663 7.63799C4.98364 7.40638 4.48448 7.22205 3.93994 7.12908V6.94395H6.5703C6.93332 6.94395 7.20559 7.22205 7.25097 7.54503L7.88627 11.0136L9.5183 6.94395H11.1057L8.65691 12.9555ZM12.0133 12.9555H10.4713L11.741 6.94395H13.2831L12.0133 12.9555ZM15.2782 8.60936C15.3236 8.28558 15.5958 8.10045 15.9135 8.10045C16.4127 8.05397 16.9564 8.14693 17.4102 8.37775L17.6825 7.08343C17.2287 6.8983 16.7295 6.80533 16.2765 6.80533C14.7798 6.80533 13.6907 7.63802 13.6907 8.79369C13.6907 9.67287 14.4622 10.1345 15.0067 10.4126C15.5958 10.6899 15.8227 10.875 15.7774 11.1523C15.7774 11.5683 15.3236 11.7534 14.8706 11.7534C14.326 11.7534 13.7815 11.6148 13.2831 11.3831L13.0109 12.6783C13.5554 12.9091 14.1445 13.002 14.6891 13.002C16.3673 13.0477 17.4102 12.2158 17.4102 10.9672C17.4102 9.39477 15.2782 9.30261 15.2782 8.60936ZM22.807 12.9555L21.5826 6.94395H20.2674C19.9951 6.94395 19.7229 7.12908 19.6321 7.40638L17.3648 12.9555H18.9522L19.2691 12.0772H21.2196L21.4011 12.9555H22.807ZM20.4943 8.56285L20.9473 10.8285H19.6775L20.4943 8.56285Z" fill="#172B85" style="fill:#172B85;fill:color(display-p3 0.0902 0.1686 0.5216);fill-opacity:1;"/>
</svg>
